<svg xmlns="http://www.w3.org/2000/svg" xmlns:xlink="http://www.w3.org/1999/xlink" width="200" zoomAndPan="magnify" viewBox="0 0 150 149.999998" height="200" preserveAspectRatio="xMidYMid meet" version="1.0"><defs><g/><clipPath id="9b28d27cdb"><path d="M 31.65625 4.789062 L 121.613281 4.789062 L 121.613281 145 L 31.65625 145 Z M 31.65625 4.789062 " clip-rule="nonzero"/></clipPath><clipPath id="b04547d9b5"><path d="M 121.394531 8.539062 L 121.394531 121.714844 C 121.394531 123.992188 120.050781 126.058594 117.964844 126.976562 L 79.957031 143.699219 C 77.769531 144.664062 75.28125 144.664062 73.09375 143.699219 L 35.089844 126.976562 C 33.003906 126.058594 31.65625 123.992188 31.65625 121.714844 L 31.65625 8.539062 C 31.65625 6.46875 33.335938 4.789062 35.40625 4.789062 L 117.644531 4.789062 C 119.71875 4.789062 121.394531 6.46875 121.394531 8.539062 " clip-rule="nonzero"/></clipPath><clipPath id="07a6593374"><path d="M 37.347656 9.519531 L 122.980469 9.519531 L 122.980469 138.980469 L 37.347656 138.980469 Z M 37.347656 9.519531 " clip-rule="nonzero"/></clipPath><clipPath id="1065959f39"><path d="M 122.894531 13.269531 L 122.894531 117.023438 C 122.894531 119.300781 121.539062 121.351562 119.445312 122.242188 L 83.570312 137.511719 C 81.367188 138.449219 78.875 138.449219 76.671875 137.511719 L 40.796875 122.242188 C 38.707031 121.351562 37.347656 119.300781 37.347656 117.023438 L 37.347656 13.269531 C 37.347656 11.199219 39.027344 9.519531 41.097656 9.519531 L 119.144531 9.519531 C 121.21875 9.519531 122.894531 11.199219 122.894531 13.269531 " clip-rule="nonzero"/></clipPath></defs><g clip-path="url(#9b28d27cdb)"><g clip-path="url(#b04547d9b5)"><path fill="#b83b71" d="M 31.65625 4.789062 L 121.613281 4.789062 L 121.613281 145.210938 L 31.65625 145.210938 Z M 31.65625 4.789062 " fill-opacity="1" fill-rule="nonzero"/></g></g><g clip-path="url(#07a6593374)"><g clip-path="url(#1065959f39)"><path fill="#ed639e" d="M 37.347656 9.519531 L 122.980469 9.519531 L 122.980469 138.980469 L 37.347656 138.980469 Z M 37.347656 9.519531 " fill-opacity="1" fill-rule="nonzero"/></g></g><path stroke-linecap="butt" transform="matrix(0.75, 0, 0, 0.75, 31.244769, 18.838961)" fill="none" stroke-linejoin="miter" d="M 91.033022 102.001183 L 91.033022 59.876181 L 87.611147 59.876181 L 87.611147 33.292846 L 39.397602 33.292846 L 39.397602 49.06368 L 73.829896 49.06368 L 73.829896 59.876181 L 39.397602 59.876181 L 39.397602 75.016806 L 73.829896 75.016806 L 73.829896 86.334515 L 39.397602 86.334515 L 39.397602 102.001183 Z M 91.033022 102.001183 " stroke="#e7e4f8" stroke-width="27.040388" stroke-opacity="1" stroke-miterlimit="4"/><g fill="#000000" fill-opacity="1"><g transform="translate(58.795548, 95.338957)"><g><path d="M 40.714844 0 L 40.714844 -31.597656 L 38.164062 -31.597656 L 38.164062 -51.53125 L 2.007812 -51.53125 L 2.007812 -39.710938 L 27.8125 -39.710938 L 27.8125 -31.597656 L 2.007812 -31.597656 L 2.007812 -20.242188 L 27.8125 -20.242188 L 27.8125 -11.742188 L 2.007812 -11.742188 L 2.007812 0 Z M 40.714844 0 "/></g></g></g></svg>