<svg xmlns="http://www.w3.org/2000/svg" version="1.0" viewBox="0 0 150 150"><path fill="none" stroke="#ffb643" stroke-width="35.17105616" d="M47.516 83.992c0 9.254 4.023 30.551 32.71 30.551 6.446 0 14.72-1.078 20.903-3.238 1.078-.395 1.34-1.473 1.34-1.864l-1.895-11.648c-.394-1.078-1.18-1.34-1.867-1.34-5.492 1.473-11.121 2.258-15.668 2.258-8.308 0-18.348-3.598-18.348-16.324V60.145c0-12.723 10.04-16.356 18.348-16.356 4.547 0 10.176.816 15.668 2.29.688 0 1.473-.263 1.867-1.34l1.895-11.68c0-.391-.262-1.47-1.34-1.864-6.184-2.125-14.457-3.203-20.902-3.203-28.688 0-32.711 21.293-32.711 30.551Zm0 0"/><path d="M47.532 83.986c0 9.246 4.02 30.547 32.691 30.547 6.434 0 14.738-1.07 20.902-3.215 1.07-.402 1.34-1.472 1.34-1.875l-1.875-11.656c-.402-1.07-1.207-1.34-1.879-1.34-5.492 1.473-11.117 2.278-15.675 2.278-8.305 0-18.356-3.618-18.356-16.344V60.139c0-12.73 10.05-16.348 18.356-16.348 4.558 0 10.183.805 15.675 2.277.672 0 1.477-.265 1.88-1.34l1.874-11.656c0-.402-.27-1.472-1.34-1.875-6.164-2.144-14.468-3.215-20.902-3.215-28.672 0-32.691 21.305-32.691 30.547Zm0 0"/></svg>