<svg xmlns="http://www.w3.org/2000/svg" xmlns:xlink="http://www.w3.org/1999/xlink" width="200" zoomAndPan="magnify" viewBox="0 0 150 149.999998" height="200" preserveAspectRatio="xMidYMid meet" version="1.0"><defs><g/></defs><path stroke-linecap="butt" transform="matrix(0.871438, 0, 0, 0.871438, 3.550972, 9.642169)" fill="none" stroke-linejoin="miter" d="M 25.397822 89.882011 C 24.079957 89.882011 23.376199 90.469223 23.111729 91.437451 L 21.560773 101.160068 C 21.560773 101.895204 21.91041 102.715508 22.641063 103.065145 C 27.917007 105.118146 34.156695 105.965345 40.396383 105.965345 C 57.093824 105.965345 66.090271 96.359274 66.090271 82.091366 L 66.090271 31.550789 C 66.090271 30.116378 64.888952 29.41262 63.920724 29.41262 L 52.759213 29.41262 C 51.790986 29.41262 50.589666 30.116378 50.589666 31.550789 L 50.589666 77.169543 C 50.589666 88.564146 45.932313 91.787089 38.11029 91.787089 C 35.241468 91.787089 29.732433 90.966785 25.397822 89.882011 Z M 125.37179 43.918102 C 125.837974 44.034648 127.276867 44.415663 127.626505 44.415663 C 128.478187 44.415663 128.827824 44.034648 129.20884 43.447436 L 132.548328 35.508867 C 132.696252 35.154747 132.929343 34.572018 132.929343 34.074456 C 132.929343 33.487244 132.812798 32.873137 131.961116 32.519017 C 125.107321 29.41262 120.068952 28.448875 111.45352 28.448875 C 96.925626 28.448875 85.176903 34.921655 85.176903 50.390882 C 85.176903 75.73065 124.641137 69.845082 124.641137 84.112989 C 124.641137 87.716947 123.67291 92.051558 112.157278 92.051558 C 106.652726 92.051558 99.561356 90.352678 93.321668 86.896643 C 92.851002 86.632174 92.469987 86.515628 92.120349 86.515628 C 91.268667 86.515628 90.91903 87.013189 90.564909 87.595919 L 85.997207 95.888608 C 85.764115 96.238245 85.643086 96.592366 85.643086 97.089927 C 85.643086 97.677139 85.764115 98.291246 86.611314 98.878458 C 96.45496 105.732254 111.574549 105.965345 111.574549 105.965345 C 137.967712 105.965345 139.989335 88.331054 139.989335 83.991961 C 139.989335 56.89504 100.529584 62.753712 100.529584 49.920216 C 100.529584 43.797074 105.330378 42.362663 112.892414 42.362663 C 117.316676 42.362663 121.651287 43.066421 125.37179 43.918102 Z M 125.37179 43.918102 " stroke="#4535aa" stroke-width="31.5" stroke-opacity="1" stroke-miterlimit="4"/><g fill="#ffb643" fill-opacity="1"><g transform="translate(20.040209, 101.143137)"><g><path d="M 5.648438 -13.175781 C 4.496094 -13.175781 3.871094 -12.652344 3.660156 -11.816406 L 2.300781 -3.347656 C 2.300781 -2.71875 2.613281 -1.988281 3.242188 -1.671875 C 7.84375 0.105469 13.28125 0.835938 18.71875 0.835938 C 33.253906 0.835938 41.097656 -7.527344 41.097656 -19.972656 L 41.097656 -64 C 41.097656 -65.253906 40.050781 -65.878906 39.214844 -65.878906 L 29.488281 -65.878906 C 28.652344 -65.878906 27.605469 -65.253906 27.605469 -64 L 27.605469 -24.261719 C 27.605469 -14.328125 23.527344 -11.503906 16.730469 -11.503906 C 14.222656 -11.503906 9.410156 -12.234375 5.648438 -13.175781 Z M 5.648438 -13.175781 "/></g></g></g><g fill="#ffb643" fill-opacity="1"><g transform="translate(72.849291, 101.143137)"><g><path d="M 39.945312 -53.226562 C 40.363281 -53.121094 41.621094 -52.808594 41.933594 -52.808594 C 42.664062 -52.808594 42.980469 -53.121094 43.292969 -53.644531 L 46.222656 -60.546875 C 46.324219 -60.859375 46.535156 -61.382812 46.535156 -61.800781 C 46.535156 -62.324219 46.429688 -62.847656 45.699219 -63.160156 C 39.738281 -65.878906 35.34375 -66.71875 27.816406 -66.71875 C 15.164062 -66.71875 4.914062 -61.070312 4.914062 -47.582031 C 4.914062 -25.515625 39.320312 -30.640625 39.320312 -18.195312 C 39.320312 -15.058594 38.484375 -11.292969 28.445312 -11.292969 C 23.632812 -11.292969 17.464844 -12.757812 12.027344 -15.789062 C 11.609375 -16 11.292969 -16.105469 10.980469 -16.105469 C 10.25 -16.105469 9.933594 -15.6875 9.621094 -15.164062 L 5.648438 -7.949219 C 5.4375 -7.632812 5.332031 -7.320312 5.332031 -6.902344 C 5.332031 -6.378906 5.4375 -5.855469 6.167969 -5.332031 C 14.746094 0.628906 27.921875 0.835938 27.921875 0.835938 C 50.925781 0.835938 52.703125 -14.535156 52.703125 -18.300781 C 52.703125 -41.933594 18.300781 -36.808594 18.300781 -48 C 18.300781 -53.332031 22.484375 -54.585938 29.070312 -54.585938 C 32.941406 -54.585938 36.703125 -53.960938 39.945312 -53.226562 Z M 39.945312 -53.226562 "/></g></g></g></svg>